<svg width="53" height="52" viewBox="0 0 53 52" fill="none" xmlns="http://www.w3.org/2000/svg" aria-hidden="true">
<g clip-path="url(#clip0_191_711)">
<path d="M10.2351 26.6667L18.6621 8H21.1001L29.5536 26.6667H26.9301L19.3511 9.41333H20.3581L12.8056 26.6667H10.2351ZM13.7331 21.92L14.4486 19.92H24.9691L25.6846 21.92H13.7331Z" fill="#F4F3F3"/>
<path d="M26.7773 44.6667V26H33.9588C35.5488 26 36.918 26.2578 38.0663 26.7733C39.2147 27.2889 40.098 28.0355 40.7163 29.0133C41.3347 29.9733 41.6438 31.1289 41.6438 32.48C41.6438 33.8133 41.3347 34.9689 40.7163 35.9467C40.098 36.9067 39.2147 37.6445 38.0663 38.16C36.918 38.6755 35.5488 38.9333 33.9588 38.9333H28.1553L29.2418 37.7867V44.6667H26.7773ZM39.2588 44.6667L34.5153 37.8933H37.1918L41.9618 44.6667H39.2588ZM29.2418 38.0267L28.1553 36.8H33.8793C35.6107 36.8 36.918 36.4267 37.8013 35.68C38.7023 34.9155 39.1528 33.8489 39.1528 32.48C39.1528 31.1111 38.7023 30.0533 37.8013 29.3067C36.918 28.5422 35.6107 28.16 33.8793 28.16H28.1553L29.2418 26.9333V38.0267Z" fill="#F4F3F3"/>
<path d="M52.6687 0V13.3333" stroke="#F4F3F3"/>
<path d="M52.3374 0.333374H39.0874" stroke="#F4F3F3"/>
<path d="M0.333213 51.3353L0.331299 38.002" stroke="#F4F3F3"/>
<path d="M0.664307 51.0019L13.9143 51" stroke="#F4F3F3"/>
</g>
<defs>
<clipPath id="clip0_191_711">
<rect width="53" height="52" fill="white"/>
</clipPath>
</defs>
</svg>
